<?xml version="1.0" standalone="no"?>
<!DOCTYPE svg PUBLIC "-//W3C//DTD SVG 20010904//EN"
 "http://www.w3.org/TR/2001/REC-SVG-20010904/DTD/svg10.dtd">
<svg version="1.0" xmlns="http://www.w3.org/2000/svg"
 width="3000.000000pt" height="3000.000000pt" viewBox="0 0 3000.000000 3000.000000"
 preserveAspectRatio="xMidYMid meet">
<metadata>
Created by potrace 1.11, written by Peter Selinger 2001-2013
</metadata>
<g transform="translate(0.000000,3000.000000) scale(0.100000,-0.100000)"
fill="#000000" stroke="none">
<path d="M15185 28301 c-40 -17 -57 -48 -62 -114 l-5 -63 41 -36 c67 -57 133
-75 334 -93 99 -8 186 -19 195 -24 40 -22 64 -60 74 -122 10 -58 8 -86 -25
-281 l-37 -216 16 -111 16 -110 -27 -68 c-18 -47 -33 -117 -47 -227 -20 -152
-20 -164 -4 -278 13 -103 14 -123 2 -156 -8 -20 -22 -100 -31 -177 -17 -146
-33 -188 -58 -154 -7 8 -25 30 -40 48 l-28 33 -132 -30 c-130 -29 -134 -30
-269 -19 -123 9 -139 9 -162 -7 -24 -15 -31 -15 -89 -1 -144 37 -187 55 -193
83 -15 69 -52 167 -101 272 l-55 115 6 88 c6 72 4 87 -8 87 -17 0 -30 55 -46
191 -39 329 -147 636 -239 684 -23 12 -30 23 -36 62 -16 106 -66 279 -105 359
-112 232 -267 244 -446 34 -38 -45 -43 -56 -48 -117 -14 -147 -36 -287 -49
-302 -11 -12 -16 -63 -20 -191 -9 -241 -36 -451 -82 -640 -13 -52 -26 -144
-30 -205 -10 -165 -32 -343 -61 -474 -13 -64 -27 -128 -30 -143 -5 -23 -16
-29 -88 -52 -45 -14 -98 -36 -117 -49 -31 -21 -34 -27 -37 -79 -3 -51 0 -60
28 -91 33 -38 99 -65 222 -90 54 -12 69 -12 80 -1 7 7 69 22 137 34 263 45
347 96 334 203 -7 47 -32 68 -123 97 -75 24 -78 29 -61 90 4 14 -1 62 -11 110
-26 130 -25 145 17 157 19 6 61 9 92 6 43 -4 105 5 238 32 174 35 180 36 222
20 24 -9 58 -34 77 -57 34 -39 38 -52 51 -163 l6 -51 -90 -74 c-89 -75 -90
-75 -90 -122 -2 -85 63 -129 227 -158 59 -11 91 -11 175 0 104 13 272 51 304
68 13 8 27 3 58 -18 72 -50 109 -60 188 -54 48 4 226 -8 532 -36 491 -45 573
-46 663 -12 l53 20 57 -26 c40 -19 74 -27 114 -27 45 0 61 -5 81 -23 27 -26
237 -82 477 -128 181 -35 346 -39 386 -8 41 30 46 64 21 130 -21 53 -26 58
-92 91 -86 43 -191 117 -206 144 -8 16 -6 27 9 52 13 22 21 63 26 126 5 66 16
117 36 170 16 42 38 127 49 189 34 192 75 247 184 246 57 0 70 -5 152 -54 50
-30 122 -67 160 -83 135 -55 156 -96 125 -243 -119 -558 -134 -710 -76 -808
52 -88 230 -196 336 -204 131 -10 167 22 276 242 48 94 90 176 95 181 5 7 -2
28 -17 52 -21 37 -31 43 -77 53 -87 18 -121 1 -183 -90 -51 -75 -101 -120
-135 -120 -26 0 -32 58 -19 181 21 208 37 277 91 390 l50 107 -35 86 c-20 47
-36 95 -36 106 0 27 43 109 73 140 13 14 66 54 118 90 135 94 268 228 309 312
29 61 32 74 29 140 -3 57 -11 88 -36 138 -26 55 -31 76 -30 136 0 124 -65 233
-197 325 -118 84 -285 157 -498 218 -81 23 -133 31 -243 36 l-139 7 -105 49
c-166 78 -314 95 -372 43 -10 -9 -24 -35 -30 -57 l-10 -39 89 -92 c101 -103
96 -87 111 -311 8 -114 7 -123 -16 -179 -13 -32 -33 -108 -44 -170 -11 -61
-40 -168 -64 -238 -32 -92 -59 -202 -95 -395 -48 -249 -54 -274 -96 -355 -41
-81 -44 -92 -44 -165 0 -59 -6 -94 -23 -138 l-24 -60 -87 3 c-70 3 -96 9 -129
28 -37 21 -55 24 -147 24 l-105 0 -67 45 -67 45 -112 -21 c-100 -18 -114 -18
-134 -5 -29 19 -26 6 -76 297 l-42 246 33 184 c17 101 36 245 40 319 7 112 12
143 30 172 30 52 35 128 15 227 l-17 83 42 101 c40 96 41 102 27 132 -8 17
-47 58 -85 91 -39 32 -71 65 -71 72 -1 18 7 15 58 -21 44 -32 49 -34 117 -29
48 3 104 -3 174 -17 105 -22 119 -20 120 16 0 13 11 15 165 38 83 13 116 22
134 38 30 28 51 77 51 121 0 43 -37 146 -55 152 -8 3 -61 -4 -119 -16 -103
-21 -107 -21 -192 -4 -77 15 -103 16 -213 6 -185 -18 -200 -16 -286 23 l-76
34 -172 -5 c-148 -5 -189 -3 -293 15 -131 23 -149 24 -179 12z m2648 -632 c34
-18 67 -23 182 -28 100 -5 149 -12 170 -23 109 -59 185 -197 214 -388 23 -152
26 -135 -40 -206 -32 -35 -59 -68 -59 -74 0 -6 -20 -20 -45 -31 -90 -40 -350
-19 -604 49 l-104 28 -16 41 c-14 40 -14 45 7 90 12 26 28 77 36 113 9 36 31
135 51 220 19 85 37 165 40 178 6 26 54 51 98 52 15 0 47 -10 70 -21z m-3863
-209 c35 -18 39 -41 24 -113 -12 -61 -12 -78 6 -182 25 -143 59 -249 110 -339
22 -38 40 -76 40 -85 0 -62 -231 -173 -312 -150 -59 16 -82 50 -86 130 -7 112
7 237 28 257 11 11 20 40 24 77 21 178 60 348 91 393 17 24 45 28 75 12z"/>
<path d="M10876 27618 c-53 -28 -67 -31 -138 -29 l-79 2 -200 -116 -200 -115
-147 -22 -147 -22 -104 -69 -103 -68 -77 6 -76 6 -61 -74 c-60 -70 -61 -74
-49 -103 27 -64 83 -94 174 -94 79 0 146 -25 193 -72 49 -49 79 -114 109 -238
23 -92 26 -97 87 -160 l64 -65 -5 -60 c-5 -46 -1 -70 12 -100 17 -38 89 -112
140 -146 19 -12 26 -28 31 -70 4 -30 19 -117 34 -194 15 -77 30 -192 33 -255
6 -107 9 -121 46 -200 47 -101 57 -160 57 -341 0 -162 7 -178 83 -186 78 -9
158 14 411 117 133 55 262 102 287 106 24 3 67 19 94 34 28 15 162 64 298 109
273 91 354 133 392 203 l20 37 -33 98 c-59 179 -122 485 -122 591 0 80 -91
147 -233 173 -59 11 -72 10 -103 -4 -44 -21 -60 -57 -73 -168 -20 -154 -17
-174 45 -311 60 -132 67 -177 50 -309 l-7 -56 -123 -25 c-109 -23 -136 -33
-243 -91 -66 -36 -131 -69 -145 -72 -29 -7 -92 16 -125 46 -19 19 -26 20 -73
10 -69 -15 -137 -14 -143 2 -2 6 11 42 29 79 19 37 34 73 34 80 0 8 -11 30
-26 51 -59 88 -204 401 -204 442 0 93 166 198 286 180 l43 -6 67 -130 c71
-138 131 -213 179 -225 19 -5 47 -1 85 12 44 15 58 26 72 54 21 41 23 130 7
229 -10 63 -13 68 -75 126 l-65 60 -24 110 c-31 140 -47 280 -39 347 l6 53
-64 61 c-35 34 -83 71 -106 83 -43 22 -119 30 -159 17 -17 -6 -93 -123 -93
-144 0 -5 23 -57 50 -116 28 -59 50 -117 50 -130 0 -34 -41 -88 -86 -113 -21
-12 -89 -40 -149 -61 -147 -52 -155 -49 -155 61 0 78 -1 80 -45 144 l-45 64 0
89 c0 105 -7 114 -102 125 -32 4 -58 11 -58 17 0 25 44 89 96 138 68 64 157
129 263 190 67 39 78 42 128 38 30 -3 58 -10 62 -17 6 -9 30 -6 97 10 49 12
115 25 147 28 l58 7 59 -85 c86 -126 162 -213 202 -235 32 -17 41 -18 77 -8
48 15 96 53 118 95 24 47 19 121 -15 212 -31 84 -145 280 -189 327 -43 45
-120 68 -221 67 -77 0 -94 -4 -146 -31z"/>
<path d="M9003 26812 c-19 -10 -47 -41 -68 -77 -20 -33 -40 -64 -45 -69 -6 -6
-26 2 -50 19 -38 27 -44 28 -73 16 -107 -43 -212 -71 -270 -71 -105 0 -157
-48 -212 -198 -32 -85 -35 -88 -108 -144 l-74 -57 -12 -78 c-30 -198 -32 -267
-16 -460 9 -103 21 -206 26 -228 6 -22 53 -121 104 -220 51 -99 117 -243 145
-320 63 -168 126 -270 242 -391 158 -164 170 -171 438 -251 l235 -71 105 24
c58 13 138 25 178 27 73 4 74 4 126 56 44 44 64 55 134 77 93 28 111 43 157
134 43 86 73 171 129 368 l47 163 -27 67 c-15 37 -29 90 -32 118 -4 48 -2 52
27 73 l32 23 -78 79 c-74 76 -78 79 -123 79 -31 0 -68 -11 -116 -34 l-70 -33
-25 -84 c-25 -83 -25 -85 -8 -139 25 -81 41 -280 27 -339 -9 -39 -8 -52 6 -80
26 -48 10 -64 -154 -155 l-143 -80 -171 18 c-94 11 -199 21 -233 23 l-63 5
-146 151 c-80 83 -158 170 -173 192 -15 22 -49 71 -75 108 -38 53 -56 94 -83
185 -20 64 -55 168 -80 230 l-45 114 11 81 c6 45 13 125 17 177 13 211 47 407
80 471 20 39 69 52 259 69 l106 9 90 -77 c49 -42 107 -86 129 -98 21 -11 74
-57 117 -101 43 -43 100 -92 127 -108 92 -54 177 -30 212 60 33 88 0 190 -113
347 -60 83 -94 142 -120 208 -45 117 -93 171 -172 194 -68 20 -88 20 -128 -2z"/>
<path d="M20775 26736 c-108 -54 -183 -100 -270 -166 -214 -162 -213 -161
-321 -352 -53 -95 -142 -234 -197 -308 -107 -144 -154 -233 -192 -367 -30
-103 -59 -294 -51 -337 3 -17 34 -128 69 -247 l63 -215 54 -49 c51 -48 164
-182 171 -204 2 -6 39 -20 81 -30 66 -15 85 -25 140 -73 42 -37 75 -58 100
-62 66 -12 242 23 491 98 82 25 150 46 151 48 2 2 17 24 34 49 16 25 49 62 72
83 42 38 64 42 111 22 13 -6 19 10 37 88 31 134 30 142 -22 190 -24 23 -64 52
-89 65 l-44 24 -85 -23 c-74 -21 -88 -28 -111 -61 -15 -20 -61 -63 -104 -95
-43 -32 -93 -71 -110 -86 -18 -15 -49 -30 -69 -34 -27 -5 -41 -15 -56 -39 -21
-37 -39 -47 -65 -38 -10 3 -82 40 -159 80 l-141 75 -83 171 c-45 95 -91 189
-102 211 -22 44 -21 46 38 294 60 245 116 371 220 491 40 48 104 129 142 181
l68 95 164 88 c288 153 414 209 503 222 47 7 49 7 92 -38 76 -80 186 -229 181
-246 -12 -39 -27 -188 -25 -249 1 -42 -7 -99 -21 -152 -53 -204 -14 -323 105
-323 80 0 195 94 229 188 60 166 91 230 145 306 67 94 86 147 78 217 -14 119
-65 162 -191 162 -83 0 -94 10 -81 69 6 26 1 33 -66 81 -103 75 -153 124 -173
169 -34 74 -148 96 -301 58 l-70 -18 -74 31 c-41 16 -83 30 -95 30 -11 0 -88
-34 -171 -74z"/>
<path d="M22372 26045 c-27 -20 -62 -85 -62 -116 0 -13 6 -50 12 -83 11 -51
18 -62 45 -79 18 -10 33 -24 33 -31 0 -17 -142 -179 -286 -326 -106 -108 -124
-131 -135 -173 -10 -41 -29 -67 -123 -166 -61 -65 -144 -166 -185 -227 -40
-60 -141 -209 -223 -331 -169 -253 -144 -234 -323 -254 -94 -10 -102 -13 -127
-42 -55 -64 -53 -132 5 -196 45 -49 274 -212 360 -256 109 -56 146 -58 188
-13 34 38 36 64 8 113 -18 30 -20 44 -14 92 10 83 57 208 141 379 63 129 80
155 116 181 62 44 109 56 192 50 126 -8 235 -56 363 -160 299 -240 310 -247
402 -247 l44 0 -79 -83 c-44 -45 -138 -161 -210 -257 -149 -198 -294 -356
-337 -366 -18 -4 -52 1 -93 15 -87 28 -129 27 -159 -4 -29 -28 -30 -43 -10
-91 30 -73 83 -129 202 -214 65 -46 144 -106 177 -132 55 -45 62 -48 100 -43
l41 6 37 -75 c24 -48 44 -76 54 -76 9 0 51 -31 93 -68 153 -138 241 -192 312
-192 33 0 47 6 75 34 19 19 34 42 34 53 0 16 -35 120 -54 165 -6 13 2 22 34
38 23 12 56 38 73 58 18 20 53 59 78 86 l46 49 30 -18 c16 -9 42 -37 57 -61
16 -26 92 -98 176 -170 158 -134 170 -151 170 -231 0 -60 -20 -99 -83 -160
l-52 -52 -120 24 -120 24 -37 -36 c-50 -48 -50 -84 -1 -205 32 -79 47 -103
111 -170 41 -43 105 -102 142 -133 66 -54 68 -57 72 -108 4 -44 15 -68 77
-162 244 -367 404 -545 490 -545 31 0 68 40 89 96 l19 50 -33 85 c-37 96 -59
198 -50 233 4 17 15 26 38 32 21 4 58 31 103 74 47 46 93 79 140 101 39 18
109 64 158 101 124 97 155 111 224 106 50 -4 60 -9 94 -45 30 -32 45 -63 70
-144 18 -57 47 -135 65 -174 62 -129 47 -170 -104 -275 -313 -218 -526 -400
-558 -477 -22 -51 -17 -150 11 -249 44 -152 104 -224 205 -246 54 -11 57 -10
200 44 80 30 170 64 200 74 53 19 55 20 64 65 8 43 6 50 -20 88 -16 22 -48 50
-71 62 l-43 21 -82 -21 c-45 -12 -94 -21 -108 -21 -34 0 -90 19 -90 30 0 16
114 132 195 200 140 115 174 138 254 165 42 14 86 32 97 40 12 8 35 52 53 105
30 82 36 92 71 110 70 36 118 41 236 25 131 -18 323 -19 396 -4 142 30 221
107 260 252 8 33 27 63 59 96 66 69 92 141 91 256 0 115 -31 225 -111 390 -97
202 -162 299 -272 410 -93 94 -101 106 -148 213 -58 130 -91 181 -155 240 -38
35 -52 42 -87 42 -26 0 -52 -8 -71 -22 l-31 -21 7 -128 6 -127 -47 -63 c-110
-152 -166 -211 -220 -235 -29 -12 -97 -56 -151 -97 -53 -41 -149 -102 -212
-136 -69 -38 -204 -129 -340 -231 -188 -139 -238 -172 -301 -194 -64 -23 -86
-38 -135 -88 -33 -33 -86 -73 -118 -90 l-60 -30 -48 51 c-43 46 -48 56 -43 84
5 25 -4 55 -38 132 -65 148 -65 145 -13 218 24 34 74 122 110 195 66 131 67
133 135 178 52 34 68 50 64 64 -5 19 14 43 168 206 117 125 241 292 291 392
34 67 42 95 44 143 1 56 4 64 45 112 242 282 303 470 189 578 -45 43 -115 66
-226 75 l-82 7 -90 -61 c-120 -80 -219 -135 -234 -130 -7 3 -64 -34 -128 -81
-180 -133 -361 -246 -531 -330 -86 -43 -200 -110 -255 -148 -137 -98 -262
-173 -415 -248 l-129 -64 -63 43 c-113 79 -152 91 -195 60 -21 -15 -22 -14
-22 15 0 71 61 169 177 286 67 67 100 115 213 303 132 221 134 223 244 324 96
88 123 121 196 235 53 83 99 143 121 159 34 24 38 33 60 127 14 59 32 110 42
120 18 18 20 17 67 -27 78 -73 161 -82 233 -26 59 46 84 160 53 235 -8 18 -33
54 -56 79 -93 101 -401 270 -455 250 -8 -3 -26 -29 -40 -57 -29 -59 -34 -154
-11 -248 l13 -56 -50 -84 c-27 -46 -62 -115 -77 -154 -21 -50 -41 -81 -73
-110 -24 -22 -61 -67 -82 -100 -36 -58 -122 -133 -145 -128 -26 7 -235 165
-318 242 -90 83 -99 88 -250 153 -103 44 -158 73 -161 84 -2 12 2 15 15 12 11
-3 25 -7 33 -9 19 -6 121 223 121 272 0 30 7 43 35 68 41 36 79 48 99 32 20
-17 126 135 126 181 0 46 50 102 83 93 41 -12 121 -57 176 -98 l54 -40 73 39
c103 55 104 56 114 115 10 65 5 74 -89 172 -138 144 -298 264 -446 333 -88 42
-142 51 -173 29z m1936 -2498 c23 -48 9 -71 -68 -111 -49 -26 -86 -56 -127
-102 -106 -120 -185 -246 -213 -342 -17 -53 -31 -66 -79 -64 -50 2 -101 24
-185 80 -76 51 -102 92 -92 147 7 35 38 68 139 144 84 63 121 83 141 75 10 -4
63 22 136 66 131 79 271 142 310 138 16 -2 30 -13 38 -31z m1442 -1036 c14
-10 36 -40 48 -67 14 -29 63 -89 121 -149 111 -113 125 -141 123 -250 -1 -110
-52 -231 -156 -372 l-45 -61 -73 -5 c-40 -3 -89 -8 -109 -12 -27 -5 -47 -1
-80 16 -89 45 -240 215 -384 431 l-57 87 16 43 c14 35 25 46 60 61 24 10 138
83 252 163 223 155 227 156 284 115z"/>
<path d="M7111 25560 c-127 -27 -299 -109 -478 -229 -95 -64 -142 -104 -228
-196 -101 -108 -115 -119 -214 -170 -157 -80 -261 -183 -261 -257 0 -12 11
-38 25 -58 29 -41 23 -41 205 -20 87 10 86 11 260 -113 89 -62 110 -83 133
-128 16 -30 64 -94 107 -143 43 -49 110 -139 148 -201 46 -73 133 -186 250
-322 155 -181 185 -221 214 -288 29 -68 41 -85 96 -128 41 -34 74 -71 96 -111
l34 -60 -89 -102 -89 -102 29 -64 c32 -72 55 -88 129 -88 62 0 93 17 237 129
321 251 455 391 455 475 0 36 -38 72 -97 91 -51 16 -52 16 -100 -8 -81 -41
-192 -77 -238 -77 -42 0 -45 2 -63 43 -12 26 -43 61 -81 92 -42 35 -73 72
-100 120 -22 39 -77 113 -122 165 -116 134 -140 197 -103 275 22 48 65 76 179
120 55 21 125 53 155 71 125 75 162 61 301 -112 113 -142 206 -251 283 -333
63 -66 176 -158 211 -171 100 -38 337 38 422 135 78 88 80 138 12 282 -28 59
-66 147 -85 194 l-35 87 -45 7 c-38 5 -48 3 -79 -21 -40 -31 -69 -68 -77 -101
-4 -13 5 -57 18 -98 24 -76 31 -168 15 -193 -16 -26 -72 16 -214 159 -129 132
-140 146 -187 244 -27 57 -55 107 -62 112 -7 4 -53 22 -103 38 l-90 30 -30 60
-30 60 3 205 c3 209 -7 308 -42 392 -41 97 -121 158 -241 183 -49 10 -71 20
-86 39 -11 14 -49 40 -85 57 -53 27 -79 33 -142 35 -42 2 -97 -1 -121 -6z m84
-336 c72 -18 177 -68 263 -123 l62 -41 0 -49 c0 -27 7 -72 16 -100 16 -47 16
-53 0 -96 -33 -85 -150 -212 -326 -354 -173 -140 -163 -134 -210 -120 -35 11
-46 22 -76 72 -19 32 -69 102 -112 155 -150 187 -212 271 -212 287 0 45 30 85
87 114 45 24 76 52 142 130 71 85 92 104 135 120 63 24 151 26 231 5z"/>
<path d="M14740 25163 c-884 -37 -1661 -161 -2480 -393 -1576 -448 -3054
-1289 -4266 -2428 -1541 -1448 -2606 -3324 -3053 -5377 -288 -1322 -313 -2737
-70 -4075 397 -2196 1488 -4197 3129 -5738 1606 -1508 3656 -2472 5830 -2741
466 -58 758 -75 1290 -75 453 0 593 5 970 40 1678 152 3318 727 4735 1659
1079 709 2001 1593 2761 2645 506 700 956 1534 1268 2349 374 975 587 1953
668 3056 17 238 17 1111 0 1335 -42 546 -92 917 -183 1375 -345 1727 -1124
3333 -2276 4692 -347 410 -797 859 -1218 1216 -1571 1334 -3500 2168 -5550
2402 -462 52 -1118 77 -1555 58z m740 -893 c1373 -56 2644 -378 3850 -976
1163 -576 2178 -1366 3036 -2364 683 -794 1249 -1740 1634 -2730 660 -1694
821 -3534 464 -5320 -242 -1208 -719 -2359 -1407 -3395 -939 -1412 -2241
-2553 -3762 -3296 -2508 -1226 -5431 -1288 -7985 -169 -2950 1292 -5061 4003
-5584 7170 -100 601 -132 1058 -123 1715 9 631 58 1108 178 1708 236 1188 695
2314 1357 3327 1257 1926 3160 3336 5357 3968 959 277 1998 402 2985 362z"/>
<path d="M19390 20127 c-382 -381 -1296 -1289 -2030 -2017 -734 -728 -1652
-1640 -2040 -2026 -1005 -999 -1087 -1079 -1118 -1081 -74 -7 -728 -43 -776
-43 -50 0 -56 2 -60 23 -2 12 -12 157 -20 322 -9 165 -21 372 -26 460 -6 88
-26 435 -45 770 -60 1034 -66 1129 -75 1166 -13 48 -63 121 -106 154 -43 33
-174 82 -245 91 l-54 7 78 24 c103 32 221 111 262 177 23 38 30 63 33 115 3
59 -21 514 -78 1456 -11 185 -25 339 -33 365 -83 272 -405 492 -757 516 -54 4
-534 -20 -1310 -66 -1738 -101 -1861 -108 -1867 -113 -2 -3 12 -283 32 -623
20 -341 42 -731 50 -869 8 -137 21 -367 30 -510 8 -143 53 -924 100 -1735 46
-811 87 -1508 91 -1547 l6 -73 61 0 c34 0 206 9 382 19 176 11 538 32 805 47
267 15 488 30 491 33 4 3 -6 222 -22 486 -15 264 -39 683 -53 930 -14 248 -28
482 -31 521 l-6 71 133 7 c73 3 167 9 209 12 l76 6 6 -63 c7 -64 17 -231 102
-1704 25 -429 52 -898 61 -1043 17 -298 28 -351 94 -450 97 -144 282 -266 515
-339 87 -27 97 -28 313 -28 l223 1 -493 -491 c-428 -427 -2593 -2576 -3650
-3624 -197 -195 -358 -359 -358 -363 0 -4 334 -8 743 -8 l742 0 660 658 c859
855 3113 3093 3554 3528 l343 339 62 7 c33 4 304 21 601 38 470 27 1034 59
1980 115 137 8 251 12 253 10 5 -4 -110 -467 -427 -1720 -93 -368 -298 -1181
-456 -1805 -157 -624 -288 -1143 -291 -1152 -5 -17 25 -18 540 -18 300 0 546
3 546 7 0 3 91 364 201 802 111 438 277 1095 369 1461 93 366 264 1043 380
1505 117 462 220 871 228 908 12 52 20 71 36 77 12 4 86 10 166 14 80 4 172 9
206 12 l61 6 6 -58 c4 -33 47 -768 97 -1634 59 -1041 95 -1596 104 -1637 42
-178 157 -304 381 -416 216 -108 335 -125 705 -103 146 9 616 36 1045 61 429
24 825 47 880 50 130 8 202 20 299 51 230 73 461 251 540 416 61 128 61 131
21 813 -19 336 -44 768 -55 960 -11 193 -23 365 -25 383 -6 32 -6 32 -63 31
-117 -1 -1671 -94 -1677 -101 -4 -4 9 -289 30 -633 20 -345 35 -628 33 -630
-5 -4 -411 -25 -415 -21 -4 4 -19 252 -73 1186 -17 294 -42 726 -55 959 -14
233 -25 450 -25 481 l0 57 202 11 c110 7 203 10 206 7 6 -6 15 -131 41 -574
11 -183 22 -335 25 -338 2 -2 159 5 348 16 188 12 579 35 868 51 288 17 525
32 526 33 0 1 -21 370 -47 819 -36 619 -52 832 -64 875 -28 97 -75 173 -156
253 -138 136 -328 228 -533 257 -110 16 -122 15 -1271 -51 -856 -50 -1184 -72
-1250 -85 -100 -20 -204 -59 -280 -104 -49 -30 -54 -30 -252 -40 -112 -6 -206
-8 -209 -4 -7 6 18 105 321 1307 997 3941 1085 4290 1076 4290 -3 0 -319 -312
-701 -693z m-8006 -1245 c13 -201 16 -326 10 -331 -10 -10 -395 -30 -406 -22
-7 7 -44 648 -37 655 6 6 291 24 359 22 l55 -1 19 -323z m6756 -1501 c0 -5
-79 -323 -176 -707 -96 -385 -217 -865 -268 -1069 -51 -203 -97 -390 -102
-415 l-9 -45 -95 -7 c-267 -20 -1635 -75 -1674 -67 -14 3 269 289 1110 1125
621 616 1145 1137 1164 1156 36 37 50 45 50 29z"/>
<path d="M5640 24473 c-106 -53 -139 -83 -235 -218 -75 -105 -123 -195 -131
-247 -6 -34 -3 -41 43 -89 l50 -52 94 46 c97 48 171 71 207 65 11 -1 127 -98
259 -215 131 -116 279 -238 328 -271 l90 -59 44 -114 c24 -63 48 -120 54 -126
5 -7 62 -49 126 -92 78 -54 140 -107 190 -161 69 -76 76 -87 93 -158 11 -43
22 -127 25 -188 7 -144 2 -155 -132 -261 -87 -69 -110 -83 -140 -83 -57 0
-172 -20 -231 -40 l-53 -19 -41 49 c-22 26 -40 50 -40 53 0 2 13 7 28 10 25 5
92 61 92 76 0 3 -6 40 -14 81 -11 58 -21 80 -41 97 -33 29 -56 29 -92 0 -15
-13 -47 -29 -71 -36 -75 -21 -92 -90 -39 -157 14 -18 16 -26 7 -22 -8 3 -37
13 -65 22 -48 15 -52 19 -92 99 -64 125 -96 157 -200 201 -73 30 -113 57 -231
155 l-144 118 -73 124 c-43 74 -83 130 -98 138 -14 7 -53 21 -88 30 -56 15
-63 19 -75 51 -27 76 -14 124 65 229 57 76 53 129 -13 191 -37 33 -91 30 -175
-11 -81 -40 -193 -150 -307 -302 -91 -122 -133 -197 -141 -255 -5 -35 -1 -44
30 -78 l35 -38 63 13 c116 22 215 -15 394 -148 122 -91 158 -129 191 -205 l31
-71 109 -31 109 -31 55 -74 c60 -82 56 -78 372 -333 146 -119 233 -182 269
-196 86 -34 179 -52 274 -52 156 0 297 51 440 159 186 141 246 243 325 553 56
218 -13 397 -244 637 -75 78 -116 112 -168 140 -62 33 -76 46 -138 132 -140
196 -148 205 -330 342 -147 110 -177 129 -192 120 -25 -16 -25 -15 -47 27 -11
21 -39 56 -63 77 -24 21 -69 68 -101 103 -54 62 -56 66 -42 86 91 124 97 159
33 217 -62 57 -111 55 -238 -8z"/>
<path d="M3975 22445 l-220 -145 -12 -60 c-7 -32 -23 -81 -37 -107 -46 -93
-107 -248 -113 -290 -5 -35 -1 -50 20 -81 40 -59 43 -93 13 -158 -48 -105 -30
-185 91 -400 45 -78 48 -81 132 -127 112 -62 402 -303 416 -347 6 -19 173
-124 290 -183 117 -58 272 -110 410 -138 132 -27 361 -31 499 -9 l89 14 198
188 c179 171 200 194 219 246 26 68 64 235 80 352 l12 85 -47 94 c-62 126
-106 239 -107 276 -1 23 -16 46 -62 95 -63 67 -139 186 -176 276 -21 49 -23
51 -138 108 -72 36 -146 82 -192 120 -101 84 -156 121 -259 171 -191 95 -371
130 -607 121 -147 -6 -152 -5 -200 19 -27 14 -56 25 -64 25 -8 0 -114 -66
-235 -145z m562 -216 c95 -13 285 -75 408 -133 50 -24 138 -77 196 -118 57
-41 141 -100 186 -131 45 -32 93 -71 108 -89 30 -35 83 -139 110 -213 11 -29
38 -71 66 -100 96 -102 108 -174 60 -360 -34 -129 -91 -262 -125 -293 -24 -22
-114 -54 -128 -46 -5 3 -42 -7 -83 -21 -59 -22 -78 -25 -89 -16 -30 25 -74 30
-147 14 l-72 -14 -116 57 c-89 44 -131 58 -183 64 -50 6 -84 17 -135 46 -37
20 -94 51 -125 68 -43 23 -97 72 -209 191 -226 238 -221 230 -263 422 -20 89
-36 178 -36 199 0 127 113 352 206 411 104 65 214 84 371 62z"/>
<path d="M26565 21241 c-26 -4 -63 -25 -106 -58 -100 -79 -125 -84 -252 -47
-43 12 -53 12 -79 -2 -43 -22 -88 -122 -88 -195 0 -63 16 -119 34 -119 6 0 28
-9 49 -20 71 -38 193 -21 471 65 80 25 147 45 149 45 2 0 17 -28 32 -61 24
-55 27 -71 23 -138 -5 -91 -40 -166 -119 -254 -48 -54 -51 -56 -115 -62 -59
-7 -73 -13 -142 -64 -42 -31 -82 -60 -88 -63 -5 -4 -50 -12 -100 -19 l-89 -11
-63 -59 c-85 -80 -97 -87 -199 -115 -122 -33 -160 -52 -183 -90 l-19 -34 -120
0 c-92 0 -129 -4 -156 -17 -19 -9 -35 -19 -35 -22 0 -3 -10 -19 -23 -35 l-23
-28 -54 16 c-29 9 -82 16 -116 16 l-62 0 -25 43 c-38 64 -117 148 -154 163
-28 12 -38 12 -73 -2 -56 -23 -74 -60 -67 -140 4 -53 22 -98 124 -315 66 -140
148 -323 183 -407 55 -133 70 -160 119 -212 31 -32 73 -66 94 -75 35 -15 41
-14 82 4 24 10 48 28 54 39 6 12 11 57 11 102 0 81 0 82 -60 188 -33 59 -60
119 -60 133 0 56 76 112 192 142 65 17 64 17 154 85 38 29 110 79 159 111 50
33 106 75 125 95 26 27 64 48 160 85 146 57 312 111 340 111 11 0 24 8 29 19
13 23 4 19 221 93 148 50 186 60 250 61 122 2 160 -33 160 -142 0 -56 -26
-116 -73 -168 -28 -31 -52 -44 -112 -63 -84 -26 -107 -50 -120 -125 -4 -22
-18 -51 -30 -65 -30 -34 -55 -84 -55 -112 0 -13 9 -42 19 -65 25 -54 68 -77
128 -69 52 7 89 25 313 156 96 56 209 119 251 140 127 64 169 111 169 190 l0
40 -84 39 c-116 54 -119 59 -99 194 l15 107 -61 107 c-45 77 -71 137 -96 221
-30 103 -38 119 -72 148 -21 18 -50 38 -64 44 -21 9 -40 43 -104 196 l-78 185
-56 29 c-106 53 -242 78 -336 61z"/>
<path d="M3138 20921 c-48 -16 -96 -51 -117 -85 -11 -18 -32 -79 -45 -136 -25
-100 -28 -107 -158 -304 -173 -261 -193 -314 -192 -501 0 -204 40 -320 145
-430 47 -49 83 -75 153 -109 116 -58 169 -69 341 -70 l140 -1 90 40 c111 50
188 101 256 168 70 70 104 126 184 300 72 157 108 203 151 193 12 -3 44 4 75
18 182 80 357 104 430 58 37 -23 93 -114 119 -194 6 -21 16 -38 20 -38 5 0 25
-13 43 -30 44 -39 62 -99 53 -183 -6 -63 -45 -196 -73 -252 -31 -61 -205 -325
-215 -325 -6 0 -38 7 -72 16 -81 21 -187 15 -249 -15 -41 -20 -52 -21 -103
-12 -82 15 -198 14 -239 -3 -88 -37 -98 -151 -22 -242 l27 -32 -37 -7 c-110
-20 -233 -136 -233 -218 0 -36 60 -107 149 -179 l79 -63 144 -29 c152 -31 176
-42 271 -126 26 -23 47 -48 47 -55 0 -7 -20 -60 -44 -117 -39 -90 -46 -121
-62 -247 -21 -171 -33 -195 -112 -226 -50 -19 -55 -24 -87 -91 -36 -74 -57
-100 -74 -90 -5 4 -28 40 -51 81 l-41 75 -57 0 c-63 0 -177 16 -356 50 l-117
22 -27 41 c-23 35 -27 51 -27 116 0 63 5 86 28 133 32 66 71 102 102 94 61
-18 238 -38 292 -33 109 8 151 51 152 155 1 36 -5 48 -37 80 -21 21 -79 59
-129 85 l-91 47 -81 -22 -80 -21 -93 38 c-138 56 -264 124 -311 168 -41 38
-43 39 -102 34 -124 -11 -216 -60 -255 -138 l-20 -39 31 -75 c17 -41 39 -77
48 -79 9 -3 59 -12 111 -21 52 -9 107 -20 122 -26 33 -14 58 -64 58 -120 0
-65 -59 -281 -82 -302 -20 -16 -22 -16 -83 28 -62 44 -65 45 -142 45 -78 0
-79 0 -148 50 -39 28 -80 50 -94 50 -17 0 -40 -16 -72 -50 l-46 -49 -21 22
c-49 53 -71 233 -53 431 10 109 13 123 39 155 16 20 38 37 49 39 15 2 29 26
57 100 21 53 49 116 62 140 l25 42 152 0 c168 0 257 15 291 49 18 18 21 33 21
102 l0 80 -46 44 c-63 59 -142 83 -339 101 -173 17 -204 13 -275 -36 -82 -57
-140 -151 -150 -246 -6 -54 -13 -69 -54 -120 l-48 -59 -22 -234 -21 -234 -67
-131 -67 -131 -5 -132 -6 -132 -47 -48 -48 -49 26 -94 c14 -52 31 -98 38 -102
21 -14 91 -8 122 11 17 11 53 47 78 80 65 84 119 111 221 111 65 0 91 -6 179
-40 110 -43 151 -48 233 -26 l52 14 63 -47 c58 -43 66 -46 123 -45 34 0 87 10
123 23 l63 21 57 -30 c31 -16 119 -59 196 -95 76 -36 175 -89 220 -119 74 -50
88 -55 169 -66 109 -15 152 -37 371 -189 32 -23 67 -41 77 -41 32 0 79 51 113
123 25 52 51 142 92 322 31 138 67 270 79 295 12 25 25 73 28 106 4 34 29 133
56 220 109 352 103 328 100 419 -5 118 -17 130 -150 170 -111 34 -229 80 -372
147 -96 46 -109 60 -26 29 166 -62 383 -99 511 -87 l75 7 17 94 c19 99 17 95
127 231 101 125 160 222 230 379 90 201 111 279 111 406 0 54 -3 103 -6 108
-3 5 -11 56 -16 113 -8 78 -18 119 -40 166 -37 79 -122 165 -207 208 -58 30
-66 32 -145 27 l-83 -5 -60 81 c-53 73 -64 83 -109 96 -67 20 -111 19 -189 -5
-63 -20 -152 -77 -208 -134 -15 -14 -58 -37 -95 -50 -98 -33 -164 -69 -203
-110 -29 -30 -39 -54 -67 -162 -40 -154 -92 -251 -184 -344 -75 -75 -140 -113
-225 -131 l-60 -12 -65 41 c-36 23 -84 55 -107 72 -83 59 -133 191 -133 348 0
75 2 82 38 138 77 118 183 195 334 244 52 16 96 22 195 24 135 2 184 14 230
58 34 32 56 100 50 154 -6 54 -29 89 -83 125 -47 31 -277 131 -354 153 -67 20
-185 29 -222 17z"/>
<path d="M27635 19505 c-48 -24 -74 -72 -85 -158 -12 -96 -28 -134 -75 -182
-51 -50 -119 -78 -240 -100 -110 -19 -140 -33 -200 -95 l-40 -41 -76 7 c-96 8
-130 -8 -215 -100 -59 -64 -62 -66 -110 -66 -27 0 -101 -7 -164 -15 -63 -9
-180 -16 -260 -16 -144 -1 -145 -1 -230 -37 -84 -37 -86 -37 -220 -36 -74 0
-162 4 -196 8 -52 6 -64 4 -85 -13 -23 -18 -24 -25 -23 -128 l0 -108 83 -242
c45 -133 85 -266 88 -295 3 -29 16 -73 28 -98 13 -25 51 -153 84 -285 66 -257
80 -296 124 -357 28 -39 28 -40 12 -80 -14 -36 -14 -53 0 -191 29 -287 78
-533 122 -622 45 -89 102 -100 176 -35 43 38 46 43 52 108 9 87 31 186 52 229
16 35 17 35 67 30 39 -4 68 1 121 20 56 21 86 25 155 24 50 -1 130 7 194 19
61 11 132 20 158 20 136 0 190 -90 158 -267 -7 -37 -16 -113 -20 -168 -8 -108
-24 -154 -65 -181 -13 -8 -68 -22 -122 -30 -447 -66 -587 -95 -690 -140 -72
-32 -89 -47 -118 -105 -53 -104 -76 -264 -51 -352 30 -105 91 -150 216 -161
41 -3 131 -14 199 -23 l124 -17 29 33 c27 30 29 38 23 80 -16 105 -40 130
-148 155 -96 22 -167 61 -167 91 0 27 176 83 377 120 77 14 106 15 174 6 131
-18 129 -18 209 57 l73 67 61 -3 c71 -3 125 -27 246 -111 226 -157 412 -210
535 -151 27 13 74 49 105 80 41 42 67 60 104 70 48 13 124 63 158 104 102 123
152 393 129 697 -9 120 -17 167 -52 284 l-41 140 9 110 c7 82 6 130 -4 188
-23 134 -65 187 -148 187 -35 0 -36 0 -93 -117 -66 -134 -62 -131 -260 -218
-93 -41 -110 -45 -180 -45 -42 0 -124 -9 -182 -20 -70 -13 -147 -20 -231 -20
-103 0 -176 -8 -400 -46 -268 -45 -276 -45 -374 -34 -97 11 -102 10 -162 -14
-48 -20 -80 -26 -135 -26 l-73 0 -32 107 c-18 59 -31 108 -30 109 5 5 258 44
342 54 50 5 122 10 160 10 115 0 168 50 210 198 19 65 21 82 11 116 -15 52
-50 72 -168 97 -141 29 -168 26 -319 -32 -124 -46 -138 -50 -192 -44 -53 7
-155 29 -162 37 -2 2 -11 55 -20 118 -14 99 -25 134 -76 249 -33 75 -59 148
-59 166 0 23 11 48 35 79 l34 46 -6 93 c-5 75 -3 95 8 99 8 3 45 -12 82 -33
38 -22 73 -39 78 -39 5 0 56 22 112 50 115 56 359 150 389 150 99 0 197 -180
165 -305 l-12 -46 -96 -38 c-160 -63 -245 -120 -267 -181 -10 -27 8 -111 30
-137 25 -31 79 -45 170 -44 139 0 156 6 215 71 l52 57 108 17 c154 24 301 31
358 17 l47 -12 56 43 c100 78 151 173 137 256 -6 35 -15 46 -68 83 -33 24 -68
42 -76 42 -9 -1 -61 -20 -115 -42 -129 -53 -148 -53 -200 2 -37 38 -46 58 -80
174 -25 86 -36 140 -32 157 l6 26 80 -6 79 -7 70 42 69 41 90 -6 c89 -7 90 -7
107 19 9 15 20 50 24 79 6 48 9 53 30 50 56 -6 148 -109 240 -271 83 -144 93
-174 86 -236 -5 -39 -12 -55 -22 -55 -11 0 -13 -7 -10 -22 13 -49 37 -215 37
-250 0 -36 -2 -38 -102 -98 -133 -80 -226 -154 -243 -193 -25 -59 27 -164 96
-191 53 -21 108 -20 197 5 70 20 308 135 345 167 32 28 67 116 78 199 12 81
12 83 -19 156 -28 66 -30 80 -25 152 l5 80 -101 209 -101 209 -10 121 c-14
172 -14 171 -80 285 l-59 103 14 71 13 72 -71 67 c-40 37 -76 67 -82 67 -5 0
-23 -6 -40 -14z m475 -2767 c29 -40 31 -47 25 -100 -6 -51 -2 -72 35 -184 35
-104 41 -135 37 -175 -16 -131 -126 -250 -329 -355 l-91 -47 -64 32 c-35 17
-75 31 -90 31 -89 0 -176 240 -216 602 l-13 118 31 30 c29 28 36 30 105 30 41
1 172 14 290 29 118 16 222 29 232 30 9 0 30 -18 48 -41z"/>
<path d="M3716 16901 c-40 -29 -51 -67 -43 -137 6 -57 32 -85 111 -122 71 -33
136 -91 136 -120 0 -30 -57 -37 -290 -36 -194 0 -195 0 -279 32 -47 18 -97 32
-112 32 -14 0 -63 -21 -107 -46 l-81 -46 -53 16 c-73 22 -90 35 -217 168 -274
286 -425 334 -626 198 -30 -20 -56 -28 -105 -32 -212 -17 -353 -227 -441 -658
-30 -150 -31 -160 -24 -325 l7 -170 -36 -111 c-31 -95 -36 -124 -36 -205 0
-129 26 -172 109 -180 32 -4 38 1 115 96 l82 100 68 17 c37 10 114 25 171 35
97 16 107 16 157 1 29 -9 105 -20 168 -23 63 -4 176 -19 250 -35 105 -22 194
-32 400 -45 254 -16 269 -18 363 -51 95 -33 100 -33 172 -23 61 9 84 8 136 -5
34 -8 63 -17 64 -18 1 -2 7 -60 13 -130 6 -71 13 -132 16 -137 12 -18 116 -53
141 -47 31 8 92 60 110 95 26 52 59 371 60 586 0 185 -2 204 -22 247 -17 38
-28 48 -57 56 -31 9 -43 7 -89 -19 -50 -27 -56 -34 -77 -92 -37 -103 -89 -204
-115 -225 -24 -19 -27 -19 -70 -3 -37 14 -59 16 -123 8 -63 -7 -91 -5 -138 8
-32 9 -129 22 -214 29 -176 15 -223 32 -259 89 -35 57 -28 117 25 238 25 57
50 127 56 154 12 56 39 115 61 134 33 27 79 30 221 16 229 -24 491 -35 591
-24 155 17 205 58 281 229 49 112 57 206 24 274 -32 66 -66 90 -192 132 -62
20 -148 52 -190 69 l-77 33 -35 -27z m-1242 -386 c29 -25 60 -45 69 -45 23 0
55 -45 73 -104 22 -69 29 -283 15 -431 -21 -221 -19 -214 -62 -240 -36 -23
-40 -24 -86 -10 -26 8 -158 26 -293 40 -135 14 -251 28 -258 30 -7 3 -22 25
-33 50 l-20 46 20 62 c19 55 20 72 11 147 -21 184 -9 237 74 322 65 66 168
117 316 158 101 28 115 26 174 -25z"/>
<path d="M2627 14025 c-178 -45 -343 -180 -426 -348 -181 -370 6 -804 399
-925 283 -87 594 32 755 288 84 133 116 326 80 484 -48 218 -217 409 -427 484
-61 21 -94 26 -198 28 -85 3 -143 -1 -183 -11z"/>
<path d="M27195 14024 c-176 -43 -341 -175 -423 -339 -58 -117 -67 -158 -67
-305 1 -120 4 -143 27 -208 38 -106 83 -177 164 -257 125 -125 277 -188 459
-188 190 -1 329 56 466 192 71 71 94 101 127 171 108 225 92 454 -45 662 -85
129 -234 234 -388 273 -74 19 -239 18 -320 -1z"/>
<path d="M3575 11650 c-44 -10 -137 -34 -207 -54 -71 -20 -150 -36 -177 -36
-35 0 -83 -13 -158 -42 -89 -34 -120 -52 -180 -104 -39 -35 -89 -72 -110 -82
-78 -40 -101 -94 -113 -267 l-8 -120 39 -77 c22 -42 39 -90 39 -106 0 -72 63
-182 132 -232 l40 -30 -28 -10 c-16 -6 -35 -13 -41 -15 -29 -10 -11 -68 35
-117 32 -34 49 -35 112 -3 33 17 66 25 99 25 44 0 54 4 88 39 33 33 49 40 119
55 73 15 84 15 110 1 16 -8 50 -15 76 -15 42 0 50 4 73 34 25 33 26 37 16 105
-5 42 -18 82 -30 100 -33 46 -81 166 -88 218 -8 66 -25 83 -82 83 -64 0 -82
-7 -109 -41 -22 -27 -22 -30 -8 -51 9 -13 16 -43 16 -70 0 -38 7 -59 35 -101
29 -44 34 -59 29 -86 -8 -36 -29 -50 -118 -76 -51 -15 -67 -16 -110 -5 -28 7
-60 19 -71 29 -56 45 -118 158 -186 339 l-39 106 16 48 c9 27 17 60 19 74 5
48 45 77 155 113 55 19 78 21 151 15 86 -6 87 -6 134 26 46 32 49 33 125 26
75 -6 81 -5 151 29 60 28 85 35 136 35 50 0 63 3 67 18 4 9 15 28 25 41 17 22
19 23 49 7 19 -10 32 -24 32 -36 0 -37 22 -66 79 -103 104 -67 105 -68 98
-204 -3 -65 -9 -129 -14 -141 -7 -18 -33 -34 -102 -62 -122 -50 -131 -59 -131
-127 0 -68 11 -88 60 -113 61 -31 120 -36 180 -14 70 25 195 152 206 209 10
56 -12 255 -41 359 -23 83 -29 93 -90 156 -59 61 -65 72 -65 109 0 38 -3 44
-47 71 -25 16 -73 40 -105 52 -32 13 -58 26 -58 30 0 14 -144 6 -225 -12z"/>
<path d="M27301 11626 c-59 -33 -66 -104 -18 -197 l32 -64 58 -3 57 -3 0 -62
c0 -35 7 -74 15 -91 8 -15 12 -32 10 -37 -9 -13 -127 -76 -158 -83 -22 -5 -38
0 -72 25 -41 29 -47 31 -102 24 -46 -5 -67 -2 -105 14 -25 11 -68 23 -95 27
-37 5 -57 16 -85 44 -42 41 -47 70 -23 116 16 32 20 130 6 166 -26 66 -89 88
-130 44 -18 -19 -24 -40 -28 -101 -7 -94 -22 -115 -84 -122 -34 -4 -64 2 -119
23 -94 34 -124 34 -193 1 -77 -38 -80 -54 -21 -134 18 -23 35 -33 66 -38 99
-16 214 -47 230 -62 24 -22 23 -33 -14 -131 l-32 -84 32 -29 c60 -54 115 -36
165 54 50 88 54 91 121 77 31 -6 88 -10 128 -9 70 2 75 1 135 -38 54 -35 71
-41 140 -47 142 -12 166 -2 294 124 92 92 113 197 63 327 -14 37 -29 85 -34
107 -11 53 -36 84 -109 134 -66 44 -91 50 -130 28z"/>
<path d="M26380 10501 c-22 -6 -25 -13 -28 -56 -3 -45 -8 -54 -62 -106 -75
-73 -106 -127 -125 -217 -8 -40 -22 -88 -30 -108 -8 -20 -15 -45 -15 -56 0
-39 112 -229 154 -261 22 -17 189 -1 246 23 71 30 85 42 135 120 34 53 43 77
49 129 9 94 61 175 129 200 47 18 119 13 167 -11 62 -32 84 -66 84 -131 1 -71
-9 -102 -37 -114 -17 -8 -29 -30 -47 -87 -13 -42 -27 -76 -31 -76 -4 0 -16
-14 -26 -31 -10 -17 -31 -39 -48 -49 -28 -17 -34 -17 -85 -4 -104 28 -182 1
-182 -62 0 -35 21 -50 89 -64 68 -15 114 -7 152 25 17 15 36 23 45 19 29 -11
82 16 135 70 49 49 55 60 72 137 11 46 31 102 44 125 23 38 24 46 14 105 -19
119 -56 215 -97 252 -21 19 -110 47 -153 47 -14 0 -40 -11 -58 -24 -18 -14
-39 -22 -46 -20 -21 8 -89 -31 -125 -73 -18 -20 -47 -67 -63 -102 -16 -36 -44
-89 -63 -118 -19 -30 -34 -61 -34 -71 0 -10 -6 -25 -12 -33 -13 -16 -110 -59
-132 -59 -7 0 -31 14 -54 31 -40 29 -42 33 -42 84 0 78 71 271 125 340 14 17
28 20 102 20 l85 0 34 39 c19 22 34 47 34 56 0 11 -36 33 -114 68 -112 51
-136 57 -186 43z"/>
<path d="M3445 10236 c-112 -37 -155 -56 -155 -67 0 -4 -24 -21 -53 -37 -60
-34 -113 -89 -134 -141 -33 -78 -26 -399 10 -466 25 -47 125 -150 200 -207 90
-67 184 -109 198 -87 4 7 31 16 60 19 47 4 53 8 62 33 8 25 5 33 -19 58 -45
47 -146 93 -188 85 -22 -4 -48 -1 -74 9 -33 14 -48 30 -95 110 -48 80 -57 102
-57 143 0 152 56 272 170 362 l38 30 48 -77 c55 -88 57 -91 129 -268 82 -203
115 -266 165 -316 61 -61 89 -67 148 -33 47 28 141 120 142 139 0 6 13 17 29
26 38 22 47 57 16 71 -21 9 -22 15 -18 68 5 52 0 71 -53 210 -55 144 -63 158
-123 223 -86 91 -138 121 -213 122 -32 0 -63 6 -70 13 -19 19 -55 14 -163 -22z
m281 -116 l83 -40 20 -64 c11 -36 42 -109 70 -163 91 -181 96 -211 47 -271
-28 -32 -118 -77 -139 -69 -22 8 -83 143 -113 250 -15 50 -39 110 -55 132 -16
22 -33 61 -37 87 -5 25 -19 63 -31 83 -12 20 -18 41 -15 47 8 12 66 48 78 48
5 0 47 -18 92 -40z"/>
<path d="M26003 9350 c-100 -26 -129 -43 -143 -84 -7 -22 -21 -38 -39 -45 -15
-7 -36 -26 -46 -44 -10 -18 -39 -59 -65 -92 -59 -75 -99 -153 -106 -208 -5
-34 0 -52 22 -92 15 -27 31 -72 35 -98 11 -66 48 -135 89 -166 19 -14 42 -33
51 -42 32 -32 145 -78 228 -95 54 -11 114 -15 171 -12 110 5 176 35 272 126
57 54 78 83 119 166 86 174 85 270 -3 438 -46 89 -88 127 -218 197 -134 72
-234 86 -367 51z m188 -184 c73 -11 129 -36 129 -56 0 -5 24 -16 54 -24 56
-17 107 -62 127 -113 15 -41 10 -129 -11 -183 -11 -28 -20 -64 -20 -80 0 -22
-13 -43 -52 -84 -69 -70 -95 -86 -174 -102 -64 -14 -67 -13 -152 16 -108 39
-236 127 -259 180 -23 55 -12 195 23 294 33 91 72 131 151 152 60 16 89 16
184 0z"/>
<path d="M4199 9229 c-33 -35 -35 -54 -14 -123 24 -80 20 -111 -18 -135 -18
-11 -61 -49 -95 -85 -58 -60 -67 -66 -125 -77 -80 -15 -90 -21 -166 -93 -87
-84 -92 -97 -94 -229 -2 -108 -1 -114 32 -180 36 -75 79 -109 191 -156 30 -13
63 -30 72 -38 41 -36 211 -21 255 23 32 33 31 92 -2 133 -26 30 -116 71 -159
71 -12 0 -41 -16 -64 -35 l-41 -36 -23 27 c-41 48 -60 63 -91 70 -29 6 -29 7
-24 54 7 61 44 148 68 160 10 6 32 10 49 10 31 0 53 17 96 72 12 15 43 37 68
48 26 11 67 33 91 50 60 41 133 43 164 4 12 -15 21 -32 21 -39 0 -27 63 -97
103 -116 85 -38 137 -16 137 59 0 26 -11 45 -48 85 -59 63 -66 79 -48 120 18
44 39 60 133 106 72 36 82 44 103 88 13 26 24 66 24 88 l1 39 -55 13 c-30 7
-61 10 -68 8 -7 -3 -58 -34 -112 -70 -151 -99 -164 -98 -215 25 -35 84 -41 90
-82 90 -26 0 -42 -8 -64 -31z"/>
<path d="M24917 8820 c-36 -28 -91 -107 -111 -158 l-16 -43 42 -82 c30 -59 62
-101 111 -150 38 -37 94 -103 125 -146 32 -44 92 -118 135 -166 42 -47 77 -89
77 -93 0 -4 -16 -15 -35 -24 -34 -17 -37 -17 -102 8 -37 13 -87 36 -111 49
-25 14 -59 25 -76 25 -17 0 -58 7 -91 15 -33 8 -95 19 -138 25 -70 8 -81 13
-111 45 -34 35 -62 43 -114 29 -19 -6 -136 -142 -169 -198 -19 -33 -16 -83 8
-107 27 -27 77 -21 120 15 54 46 74 38 197 -76 52 -48 109 -90 141 -105 29
-13 115 -74 190 -134 134 -110 240 -175 267 -165 19 7 44 -21 44 -49 0 -18 16
-35 68 -69 119 -82 117 -79 103 -117 -11 -31 -9 -35 21 -66 17 -18 40 -33 49
-33 24 0 93 80 145 169 53 91 60 118 40 166 l-16 37 -37 -23 c-21 -12 -50 -31
-64 -41 -26 -17 -27 -17 -70 15 -24 19 -69 49 -99 69 -30 19 -86 61 -124 92
-87 72 -129 93 -294 147 l-132 44 -19 49 c-15 41 -24 50 -56 62 -42 14 -55 28
-55 60 0 30 9 35 34 19 11 -8 44 -14 72 -14 38 1 69 -8 118 -31 60 -29 73 -32
143 -29 l78 4 10 -49 c13 -62 47 -86 120 -86 52 0 136 32 168 64 23 23 16 51
-40 155 -32 59 -84 128 -181 239 -151 172 -202 233 -202 244 0 4 9 12 21 18
17 10 26 6 63 -28 55 -50 116 -86 190 -108 53 -17 62 -23 95 -75 20 -32 61
-77 91 -100 30 -24 87 -72 125 -108 39 -37 103 -86 143 -111 46 -29 70 -50 67
-58 -3 -8 -8 -38 -11 -67 -6 -49 -4 -56 20 -80 42 -41 88 -20 158 72 113 148
130 179 132 235 1 61 -17 73 -60 39 -38 -30 -90 -27 -139 6 -22 15 -81 59
-130 99 -71 56 -101 73 -135 78 -74 12 -77 14 -131 89 -29 40 -54 73 -55 75
-1 1 -31 11 -68 22 -75 21 -324 176 -352 217 -10 17 -21 22 -34 18 -24 -8 -45
23 -60 89 -12 53 -27 87 -44 98 -16 11 -21 10 -49 -12z"/>
<path d="M5405 8159 c-16 -5 -51 -31 -77 -59 l-46 -50 -65 0 c-39 0 -69 -5
-75 -12 -15 -19 -25 -84 -18 -114 10 -37 61 -56 112 -42 39 10 211 93 270 129
l32 19 31 -47 c18 -26 34 -58 38 -71 11 -46 -5 -131 -37 -191 -26 -49 -39 -62
-69 -72 -20 -6 -61 -35 -91 -63 -38 -36 -70 -56 -102 -65 -39 -11 -52 -21 -82
-66 -29 -44 -47 -59 -110 -90 -56 -28 -78 -44 -82 -62 -8 -29 -25 -39 -89 -48
-75 -11 -93 -21 -112 -59 -16 -34 -17 -35 -64 -29 -26 3 -62 0 -81 -6 -31 -11
-35 -10 -58 16 -43 47 -91 83 -111 83 -10 0 -26 -11 -34 -24 -14 -22 -15 -28
-1 -60 8 -20 57 -93 109 -163 52 -71 120 -167 152 -216 54 -82 125 -147 160
-147 16 0 45 33 45 51 0 40 -25 93 -65 137 -61 67 -66 99 -26 144 17 20 49 44
70 54 37 18 241 223 241 242 0 9 169 117 230 147 19 10 46 28 60 40 41 38 215
132 269 146 35 9 60 10 78 3 99 -35 86 -206 -21 -264 -44 -23 -67 -64 -52 -89
4 -5 -3 -26 -15 -45 -19 -32 -20 -40 -9 -66 15 -36 48 -47 83 -28 28 14 273
223 325 276 18 19 32 44 32 57 0 20 -7 25 -56 36 -69 15 -84 36 -91 121 -5 57
-10 68 -53 118 -26 31 -62 83 -79 117 -29 59 -67 93 -103 93 -7 0 -44 47 -82
105 -59 90 -74 106 -105 115 -43 12 -135 12 -176 -1z"/>
<path d="M6088 7286 c-54 -50 -57 -74 -15 -132 58 -82 59 -79 -50 -186 -121
-118 -247 -232 -293 -266 -19 -14 -78 -67 -130 -118 -52 -51 -138 -127 -190
-168 l-95 -76 -35 35 c-42 41 -68 44 -97 13 -55 -61 -53 -101 7 -143 42 -29
137 -141 187 -221 31 -49 53 -55 104 -29 34 18 53 58 44 94 -3 13 -23 44 -43
69 -36 44 -36 45 -17 59 150 109 195 147 195 165 1 31 31 61 125 128 99 71
100 72 153 67 28 -3 76 -17 105 -30 60 -27 83 -57 121 -159 24 -64 24 -65 6
-105 -10 -23 -53 -77 -95 -121 -69 -73 -80 -81 -124 -87 -39 -5 -51 -12 -60
-31 -16 -37 -120 -174 -135 -180 -7 -3 -30 5 -50 17 l-37 22 -27 -20 c-15 -11
-33 -32 -40 -46 -18 -36 -8 -52 108 -180 104 -115 131 -129 185 -98 24 13 31
25 33 54 3 33 -2 42 -42 79 -25 22 -46 47 -46 54 0 20 204 196 289 249 68 42
156 113 182 146 17 22 44 46 60 55 34 17 37 44 11 82 -10 15 -31 70 -47 122
-15 52 -39 113 -51 135 -46 83 -146 155 -216 155 -33 0 -48 12 -48 39 0 22 15
35 91 85 57 36 98 71 111 92 13 23 42 46 89 70 78 41 81 50 46 127 -48 104
-159 217 -213 217 -11 0 -36 -15 -56 -34z"/>
<path d="M24249 6865 c-1 -3 -3 -9 -4 -15 -1 -5 -3 -16 -4 -24 0 -8 -24 -22
-52 -31 -42 -14 -69 -37 -169 -138 -105 -107 -123 -131 -151 -197 -42 -98 -51
-203 -22 -252 13 -22 18 -45 16 -68 -4 -32 3 -44 85 -136 50 -56 103 -106 119
-112 15 -5 52 -26 80 -45 31 -21 76 -40 110 -47 52 -11 63 -10 137 15 110 36
253 107 306 152 59 51 102 145 149 329 6 23 11 71 11 108 0 61 -2 67 -25 78
-14 6 -30 26 -37 45 -12 34 -38 48 -75 41 -43 -8 -59 -182 -23 -253 33 -64 27
-93 -40 -193 -54 -81 -65 -91 -117 -115 -116 -51 -197 -60 -294 -31 -44 13
-124 47 -137 59 -2 2 21 40 51 86 31 48 120 153 206 244 165 175 211 245 211
322 0 29 -6 49 -19 62 -33 33 -104 68 -161 81 -30 6 -68 18 -83 26 -28 14 -66
19 -68 9z m116 -145 c23 -11 53 -33 68 -48 23 -24 26 -33 18 -53 -14 -37 -97
-129 -179 -199 -45 -37 -81 -79 -94 -105 -13 -27 -33 -48 -53 -58 -18 -9 -46
-34 -61 -56 -16 -22 -35 -41 -43 -41 -8 0 -29 11 -48 26 l-33 25 0 90 0 91 63
66 c35 37 89 99 119 137 115 145 157 167 243 125z"/>
<path d="M23419 5962 c-13 -10 -69 -31 -124 -47 -119 -34 -169 -61 -223 -119
-38 -41 -49 -66 -70 -156 -6 -27 -14 -36 -34 -38 -22 -3 -33 9 -88 92 -40 60
-75 101 -95 112 -24 12 -42 37 -66 86 -29 59 -36 68 -60 68 -86 0 -289 -159
-289 -227 0 -19 59 -82 93 -99 28 -15 31 -14 56 9 30 28 83 57 105 57 16 0
299 -301 362 -385 20 -27 76 -90 123 -140 83 -86 231 -265 231 -280 0 -3 -13
-17 -29 -31 -46 -38 -46 -61 -2 -106 49 -49 83 -50 119 -5 50 61 126 128 201
180 46 32 77 60 79 72 2 12 -8 36 -20 55 -20 29 -31 36 -64 38 -35 3 -48 -3
-83 -33 -24 -19 -48 -35 -54 -35 -7 0 -26 22 -43 48 -63 96 -115 152 -153 168
-30 12 -52 36 -109 119 -40 57 -72 114 -72 127 0 32 24 117 43 154 20 39 75
75 156 102 l63 21 39 -20 c22 -11 75 -54 118 -97 71 -69 80 -82 86 -124 3 -27
10 -48 14 -48 12 0 184 -128 193 -144 5 -8 -1 -30 -15 -55 l-22 -42 37 -34
c21 -19 46 -35 57 -35 21 0 63 33 182 143 84 79 94 103 67 162 -9 21 -18 25
-54 25 -37 0 -46 -5 -74 -40 -17 -22 -40 -40 -50 -40 -32 0 -180 174 -282 335
-18 28 -63 81 -101 119 -37 38 -72 77 -78 87 -12 24 -40 24 -70 1z"/>
<path d="M6628 5850 c-24 -12 -47 -18 -65 -14 -24 5 -40 -4 -103 -59 -118
-101 -121 -105 -206 -261 -43 -81 -43 -143 0 -255 50 -130 104 -229 151 -277
66 -68 249 -130 417 -141 76 -5 78 -5 88 21 5 15 25 33 47 43 33 16 38 22 38
53 0 31 -4 36 -35 47 -19 7 -69 12 -110 12 -59 1 -82 -3 -105 -19 -53 -35 -96
-27 -195 38 -80 51 -91 62 -113 112 -68 153 -67 260 4 402 l18 36 67 -41 c62
-39 101 -72 337 -285 113 -102 172 -135 246 -136 54 -1 55 0 91 47 33 43 63
122 66 172 0 11 6 30 12 42 7 12 12 33 12 47 0 19 -6 25 -26 28 -21 2 -30 13
-46 53 -25 66 -207 251 -288 294 -117 62 -234 78 -302 41z m243 -143 c23 -26
76 -75 118 -107 144 -112 163 -133 168 -182 6 -48 -14 -95 -61 -152 -23 -27
-27 -29 -52 -17 -47 21 -103 71 -181 160 -45 52 -92 95 -119 109 -28 14 -50
35 -63 60 -11 20 -37 48 -60 62 -45 27 -46 31 -30 63 29 56 37 59 142 55 l97
-3 41 -48z"/>
<path d="M22210 5716 c-5 -13 -12 -39 -15 -58 -9 -47 -47 -68 -120 -68 -54 0
-60 -3 -114 -49 -31 -26 -84 -62 -118 -79 -63 -32 -93 -63 -93 -94 0 -11 -40
-44 -107 -90 l-108 -73 -12 -59 c-8 -40 -8 -78 -2 -115 7 -47 16 -62 61 -108
51 -52 52 -53 53 -118 1 -72 6 -80 63 -91 53 -10 94 6 104 41 14 50 -1 98 -72
241 -77 153 -77 142 4 185 51 28 152 23 209 -10 73 -41 84 -51 95 -90 8 -23
30 -55 60 -83 34 -32 52 -59 65 -99 14 -46 24 -59 66 -86 42 -27 56 -45 87
-108 23 -48 44 -79 58 -85 32 -12 43 -29 51 -80 12 -82 24 -106 59 -122 32
-16 33 -17 29 -70 -3 -29 0 -64 5 -78 8 -22 3 -32 -44 -83 -54 -58 -66 -91
-42 -115 32 -32 78 -11 249 115 52 38 135 97 185 130 130 88 178 148 154 193
-22 42 -97 22 -178 -48 -88 -74 -137 -62 -197 51 -16 29 -33 55 -38 58 -5 4
-48 45 -96 91 -47 47 -93 89 -102 94 -18 10 -102 141 -144 225 -15 29 -33 57
-41 62 -7 4 -40 58 -74 119 -99 179 -103 258 -18 293 73 29 159 -6 207 -85 28
-46 34 -50 68 -50 21 0 47 -7 57 -15 11 -8 35 -15 53 -15 39 0 69 36 58 70 -8
24 -66 98 -165 210 -37 41 -77 90 -89 108 -21 31 -67 62 -91 62 -6 0 -15 -11
-20 -24z"/>
<path d="M7495 5210 c-17 -19 -17 -23 34 -135 33 -73 50 -122 46 -135 -3 -10
-22 -29 -41 -41 -23 -14 -45 -42 -65 -80 -24 -48 -38 -64 -73 -81 -39 -19 -45
-27 -62 -80 -13 -44 -28 -68 -60 -98 -43 -39 -43 -39 -78 -25 -49 21 -109 19
-129 -3 -10 -10 -17 -35 -17 -55 0 -34 5 -40 73 -86 39 -27 90 -68 112 -91 48
-50 113 -85 177 -94 43 -6 48 -5 64 18 21 34 14 60 -36 120 -65 78 -57 108 67
283 66 91 74 99 118 111 26 7 59 21 73 32 53 42 246 10 303 -51 49 -53 54 -80
30 -162 -24 -82 -26 -115 -9 -152 25 -55 117 -74 155 -32 41 44 73 123 73 181
0 45 -8 70 -44 140 -63 124 -95 159 -163 184 -48 18 -62 29 -81 62 l-23 40
-64 0 c-71 0 -61 -10 -81 90 -4 23 -20 39 -79 76 -72 44 -161 84 -189 84 -7 0
-21 -9 -31 -20z"/>
<path d="M8615 4367 c-16 -8 -39 -24 -49 -36 -12 -13 -31 -21 -51 -21 -27 0
-39 -9 -77 -57 -69 -89 -119 -168 -128 -205 -5 -18 -18 -58 -29 -88 -39 -106
-27 -169 61 -302 72 -110 178 -223 222 -237 61 -20 212 -41 291 -41 111 0 184
18 192 48 3 12 21 35 40 51 31 25 35 33 28 58 -9 36 -20 43 -77 43 -75 0 -150
-20 -175 -46 -24 -26 -63 -44 -94 -44 -12 0 -63 17 -116 38 l-95 37 -49 73
c-64 96 -83 163 -76 262 3 41 11 91 17 111 l10 37 88 -34 c48 -19 116 -52 152
-73 36 -21 124 -73 195 -115 72 -42 152 -83 179 -91 68 -21 139 -19 164 3 35
29 63 117 63 196 -1 39 0 87 2 106 2 32 -1 35 -26 38 -20 3 -36 17 -61 53 -26
39 -59 66 -167 134 -74 47 -150 90 -169 96 -59 18 -231 22 -265 6z m223 -119
c26 -18 108 -65 182 -104 147 -77 164 -94 165 -169 0 -55 -43 -139 -73 -143
-29 -4 -135 55 -238 133 -51 39 -97 66 -126 73 -32 8 -53 21 -67 41 -11 15
-43 38 -71 50 -50 21 -51 23 -44 54 11 56 21 65 81 77 32 7 63 14 68 15 37 12
80 2 123 -27z"/>
<path d="M20162 4339 c-63 -12 -182 -68 -219 -103 -19 -17 -33 -40 -33 -53 0
-33 28 -85 57 -107 23 -17 30 -18 57 -7 68 28 116 35 130 20 20 -21 150 -263
227 -425 38 -77 91 -180 118 -228 28 -48 51 -89 51 -92 0 -2 20 -49 45 -104
25 -55 45 -102 45 -104 0 -2 -13 -9 -29 -16 -69 -28 -77 -76 -21 -131 37 -37
68 -37 116 2 51 41 99 65 214 109 l95 36 3 42 c6 83 -70 117 -160 71 -22 -11
-44 -17 -48 -12 -5 4 -23 43 -40 87 -44 111 -58 137 -97 171 -26 23 -43 55
-73 138 -22 60 -40 117 -40 128 0 24 28 81 68 135 35 48 87 69 192 77 l65 6
47 -49 c25 -26 65 -81 87 -122 34 -60 41 -81 39 -121 -2 -40 3 -52 28 -80 62
-65 124 -149 124 -166 0 -10 -9 -26 -20 -36 -31 -28 -33 -52 -10 -90 36 -59
58 -57 197 16 167 87 168 88 168 144 0 80 -49 96 -134 44 -27 -17 -54 -28 -60
-25 -29 18 -117 208 -191 413 -12 34 -42 93 -66 132 -24 39 -44 77 -44 85 0
29 -28 39 -73 28 -23 -6 -93 -13 -155 -16 -92 -4 -122 -9 -168 -30 -87 -40
-111 -62 -144 -132 -29 -60 -33 -64 -58 -58 -15 4 -28 7 -28 8 -1 1 -16 45
-33 99 -21 62 -45 111 -66 137 -24 29 -36 56 -45 105 -10 55 -17 68 -37 76
-13 5 -27 9 -31 8 -4 -1 -27 -5 -50 -10z"/>
<path d="M10329 4184 c-17 -5 -39 -45 -39 -69 0 -8 25 -29 56 -46 38 -22 53
-36 50 -46 -3 -8 -11 -58 -17 -111 -10 -85 -18 -110 -64 -202 -38 -75 -64
-147 -89 -244 -30 -117 -45 -155 -97 -245 -37 -65 -72 -143 -90 -201 -28 -90
-47 -120 -76 -120 -7 0 -35 12 -62 27 -42 24 -52 26 -74 16 -33 -15 -45 -58
-26 -92 21 -37 109 -85 291 -158 135 -54 169 -64 202 -60 58 8 69 28 46 80
-17 39 -24 43 -84 61 -53 16 -67 24 -77 48 -10 24 -8 33 19 75 18 29 53 123
87 238 32 105 64 198 73 207 24 28 46 30 103 8 96 -36 100 -41 110 -167 4 -61
13 -122 18 -136 13 -34 45 -43 77 -22 39 25 47 60 29 115 -19 58 -6 100 31
100 12 0 34 4 47 9 22 9 25 17 31 92 6 68 12 92 37 133 25 41 29 53 20 72 -12
26 -44 50 -82 59 -24 6 -29 1 -57 -48 -45 -80 -124 -121 -188 -97 -51 19 -123
74 -135 103 -11 27 -9 31 35 75 26 27 46 57 46 69 0 37 61 183 83 198 41 29
145 15 312 -41 44 -14 87 -33 96 -41 26 -22 79 -137 79 -169 0 -16 -11 -53
-25 -82 -30 -64 -30 -65 -7 -119 16 -40 20 -43 54 -43 50 0 113 26 126 53 7
12 23 54 38 92 14 39 43 95 65 127 21 31 39 66 39 77 0 29 -59 92 -133 140
-44 29 -88 46 -150 61 -81 19 -366 136 -480 196 -39 21 -65 26 -140 29 -51 2
-99 2 -108 -1z"/>
<path d="M19221 3799 c-38 -63 -36 -86 24 -212 30 -63 55 -127 55 -141 0 -32
-24 -47 -110 -71 -36 -10 -71 -24 -78 -30 -22 -20 -17 -83 9 -111 31 -33 46
-36 122 -25 36 5 75 7 86 4 11 -3 33 -28 50 -57 16 -28 49 -76 74 -105 42 -49
45 -57 49 -120 3 -55 10 -78 38 -126 19 -33 55 -80 80 -105 43 -43 50 -46 141
-63 102 -20 163 -15 240 17 43 18 106 84 144 152 16 27 40 61 53 76 46 50 43
218 -3 264 -54 54 -135 20 -184 -77 -37 -75 -38 -81 -7 -122 39 -53 39 -54 -7
-85 -23 -17 -52 -46 -62 -66 -11 -20 -26 -36 -35 -36 -20 0 -140 57 -162 77
-13 11 -18 31 -18 67 0 46 -4 54 -44 96 -31 32 -47 59 -55 95 -7 28 -24 70
-38 94 -45 78 -16 165 58 177 59 10 119 60 143 118 18 43 19 50 5 74 -8 15
-29 30 -47 36 -29 8 -39 5 -100 -37 -94 -65 -131 -62 -176 16 -14 23 -35 73
-46 109 -24 80 -70 122 -153 142 -23 5 -30 2 -46 -25z"/>
<path d="M11794 3551 c-16 -10 -47 -38 -68 -62 -37 -43 -38 -45 -32 -109 7
-77 42 -154 73 -158 46 -7 216 99 233 144 16 40 -5 96 -56 153 -39 44 -51 51
-82 51 -21 0 -51 -8 -68 -19z"/>
<path d="M18200 3557 c-33 -16 -68 -89 -76 -157 l-6 -56 51 -56 c28 -31 67
-63 87 -73 34 -16 37 -16 56 2 27 24 93 138 108 187 11 34 10 44 -5 73 -31 57
-162 106 -215 80z"/>
<path d="M17540 3483 c-77 -15 -188 -47 -222 -64 -58 -30 -52 -56 23 -99 34
-19 74 -49 89 -67 26 -29 29 -38 24 -85 -8 -81 -24 -146 -40 -159 -20 -17 -18
-31 16 -77 32 -45 38 -87 16 -117 -11 -16 -10 -31 10 -104 13 -47 24 -115 24
-150 0 -53 4 -68 26 -93 32 -39 29 -72 -9 -76 -26 -3 -30 2 -83 115 -31 65
-59 137 -64 161 -4 23 -14 50 -22 60 -7 9 -30 36 -50 58 -31 36 -37 50 -43
113 -8 81 -17 91 -86 91 -49 0 -97 -27 -121 -67 -14 -24 -15 -48 -9 -182 7
-133 5 -163 -10 -210 -15 -51 -16 -59 -2 -91 28 -66 28 -70 -5 -70 -32 0 -77
42 -108 101 -14 29 -14 35 0 73 22 57 20 68 -13 110 -20 25 -31 52 -36 92 -4
34 -18 76 -36 105 -22 39 -29 62 -29 104 0 31 -8 73 -20 100 -28 66 -26 96 11
131 46 43 70 80 63 97 -3 9 -20 23 -39 31 -30 15 -37 14 -91 -4 -51 -18 -66
-19 -107 -9 -61 14 -77 3 -77 -56 0 -34 9 -56 43 -106 80 -117 106 -172 113
-235 4 -33 19 -84 35 -116 23 -45 29 -71 29 -122 0 -79 37 -211 92 -326 29
-61 40 -96 39 -125 -2 -37 18 -115 57 -225 8 -25 30 -60 48 -77 55 -56 119
-39 174 48 l34 51 -17 64 c-16 58 -16 73 -2 193 14 121 14 136 -3 224 -16 85
-17 98 -4 124 19 36 17 34 36 27 41 -16 121 -211 136 -331 6 -49 22 -100 46
-151 20 -42 47 -100 60 -128 13 -28 33 -59 43 -68 18 -17 23 -17 74 -2 65 19
99 44 121 91 18 37 13 95 -20 211 -8 28 -14 94 -14 146 0 75 -4 106 -21 143
-25 55 -22 89 15 190 l25 70 -36 64 -35 63 21 38 c20 36 20 39 5 90 -24 81
-12 178 28 222 33 36 58 86 58 117 0 37 -41 71 -90 75 -25 2 -56 2 -70 -1z"/>
<path d="M11338 3212 c-31 -19 -32 -22 -18 -72 9 -34 14 -37 93 -63 45 -15
107 -41 137 -59 65 -39 81 -72 61 -121 -8 -18 -17 -61 -21 -97 -4 -36 -19 -98
-34 -137 -32 -90 -33 -119 -1 -165 30 -45 31 -54 4 -69 -18 -9 -30 -6 -69 15
-38 21 -61 26 -116 26 -42 0 -80 -6 -98 -15 -15 -8 -54 -15 -85 -15 -31 0 -67
-6 -81 -13 -22 -11 -25 -19 -23 -61 1 -26 6 -53 13 -60 6 -8 44 -17 93 -21 69
-6 90 -13 135 -41 51 -33 56 -34 154 -34 l101 0 168 -70 c188 -78 226 -85 258
-44 24 31 25 44 10 114 -17 79 -40 97 -127 103 -71 4 -74 4 -83 -20 -10 -26
-22 -27 -82 -4 -58 22 -62 141 -8 217 27 39 31 53 31 112 0 59 4 75 32 118 17
27 37 77 44 112 8 34 25 84 39 112 30 60 31 85 5 128 -24 40 -44 41 -79 3
l-26 -29 -40 28 c-25 17 -71 34 -125 45 -54 11 -111 32 -156 56 -39 22 -73 39
-75 38 -2 0 -16 -8 -31 -17z"/>
<path d="M18404 3149 c-4 -7 -10 -26 -14 -43 -6 -30 -8 -31 -60 -32 -35 0 -87
-12 -143 -32 -67 -24 -105 -32 -158 -32 -66 0 -69 -1 -84 -31 -15 -28 -15 -33
-1 -54 29 -43 47 -47 138 -25 46 11 113 20 150 20 56 0 71 -4 88 -22 11 -12
20 -34 20 -50 0 -15 13 -56 30 -90 16 -35 36 -98 45 -141 19 -87 48 -132 96
-142 67 -15 37 -75 -38 -75 -24 0 -61 -9 -83 -20 -47 -24 -110 -77 -110 -94
-1 -6 -28 -28 -60 -48 -67 -42 -82 -73 -56 -113 9 -14 27 -32 41 -41 24 -15
27 -14 92 22 59 32 78 38 141 40 68 3 79 7 157 55 l84 51 179 28 c99 15 189
33 200 39 27 14 42 42 42 76 0 29 -67 108 -112 131 -27 14 -32 13 -98 -23 -55
-30 -68 -42 -64 -56 8 -25 -12 -45 -53 -53 -48 -9 -77 7 -109 61 -21 37 -27
61 -28 113 -2 55 -7 75 -31 112 -23 36 -30 61 -35 125 -4 44 -14 100 -24 125
-9 25 -20 71 -23 104 -5 44 -13 66 -32 87 -30 32 -75 47 -87 28z"/>
<path d="M15175 3008 c-35 -41 -36 -46 -31 -93 4 -27 9 -93 13 -145 8 -124 6
-125 -131 -125 l-101 0 -14 -41 c-13 -38 -13 -43 8 -77 19 -31 30 -37 79 -47
107 -22 119 -31 127 -92 4 -29 19 -84 32 -122 l25 -70 -17 -77 c-17 -72 -17
-81 -1 -150 27 -120 46 -149 132 -203 166 -106 277 -102 424 15 30 24 68 51
85 59 38 19 70 77 86 157 16 77 5 108 -48 129 -53 23 -100 6 -163 -58 -39 -39
-50 -57 -46 -73 4 -11 9 -38 12 -61 l6 -41 -42 -6 c-26 -3 -57 -17 -81 -37
l-39 -31 -30 21 c-40 28 -99 100 -106 127 -3 12 0 41 8 65 14 40 13 47 -6 88
-16 36 -20 70 -23 174 l-2 129 34 34 c32 32 38 34 78 28 66 -10 125 10 175 61
35 34 42 48 37 66 -10 34 -54 71 -79 65 -12 -2 -49 -10 -83 -17 -113 -25 -143
12 -143 178 0 98 0 100 -35 145 -61 80 -88 85 -140 25z"/>
<path d="M12465 2893 c-74 -20 -62 -57 50 -152 52 -45 95 -89 95 -99 0 -9 -9
-30 -20 -47 -15 -22 -20 -47 -20 -96 0 -57 -4 -71 -30 -107 -28 -39 -29 -46
-23 -102 4 -46 1 -74 -12 -114 -18 -53 -19 -54 -64 -60 -97 -13 -131 -58 -96
-125 13 -26 20 -29 91 -35 43 -4 109 -18 148 -32 80 -28 123 -30 193 -9 42 12
52 20 56 42 8 41 1 48 -74 88 -102 53 -108 75 -75 270 23 133 24 137 63 178
23 23 46 52 52 64 17 33 83 63 172 79 87 15 123 9 174 -30 30 -23 33 -31 43
-113 11 -81 14 -90 47 -120 39 -37 70 -41 120 -17 52 24 71 112 44 208 -15 54
-91 131 -188 190 -81 49 -82 49 -147 43 -59 -6 -69 -4 -104 19 -35 23 -43 25
-74 14 -19 -6 -40 -18 -46 -26 -20 -23 -38 -16 -71 29 -17 23 -39 45 -50 49
-26 10 -228 19 -254 11z"/>
<path d="M14085 2729 c-27 -4 -75 -4 -107 -2 -56 6 -56 5 -107 -42 -28 -27
-74 -79 -102 -116 l-51 -69 11 -50 c14 -64 48 -131 97 -193 34 -41 49 -51 109
-69 46 -15 88 -21 125 -19 145 9 184 6 230 -19 62 -34 90 -91 90 -181 0 -53
-4 -72 -22 -94 -46 -58 -166 -86 -200 -46 -15 17 -26 19 -85 15 -50 -4 -76 -1
-98 10 -16 9 -35 16 -42 16 -6 0 -25 11 -41 25 -25 21 -31 35 -37 88 -14 119
-62 174 -125 142 l-33 -17 6 -65 c7 -74 44 -147 83 -165 15 -7 24 -20 24 -33
0 -32 42 -72 104 -101 50 -23 68 -25 203 -26 l148 -2 70 36 c79 40 158 106
181 149 11 22 13 46 8 97 -6 61 -10 70 -45 104 -22 21 -39 43 -39 51 0 19 -48
61 -98 87 -24 12 -89 28 -144 36 -55 8 -111 19 -124 25 -14 5 -45 9 -69 9 -39
0 -47 4 -84 49 -45 54 -51 87 -27 145 11 27 22 35 59 45 87 21 301 9 364 -21
22 -10 31 -25 44 -75 21 -82 41 -110 86 -122 48 -14 60 -14 68 0 4 6 13 59 20
119 14 111 10 156 -19 195 -12 17 -18 18 -65 7 -48 -11 -54 -10 -89 12 -44 28
-143 63 -192 68 -19 3 -57 1 -85 -3z"/>
</g>
</svg>
